<svg width="1280" height="256" xmlns="http://www.w3.org/2000/svg" style="background-color:#fff;">
	<style>
		rect {
			stroke: black;
			stroke-width:1
		}
		text {
			stroke: black;
			stroke-width:2
		}
	</style>

	<!-- first cards: face with digit -->
	<svg height="25%" width="5%" x="0%" y="0%">
		<rect fill="green" x="0" y="0" width="100%" height="100%" />
		<text x="33.3%" y="33.3%">1</text>
	</svg>
	<svg height="25%" width="5%" x="5%" y="0%">
		<rect fill="green" x="0" y="0" width="100%" height="100%" />
		<text x="33.3%" y="33.3%">2</text>
	</svg>
	<svg height="25%" width="5%" x="10%" y="0%">
		<rect fill="green" x="0" y="0" width="100%" height="100%" />
		<text x="33.3%" y="33.3%">3</text>
	</svg>
	<svg height="25%" width="5%" x="15%" y="0%">
		<rect fill="green" x="0" y="0" width="100%" height="100%" />
		<text x="33.3%" y="33.3%">4</text>
	</svg>
	<svg height="25%" width="5%" x="20%" y="0%">
		<rect fill="green" x="0" y="0" width="100%" height="100%" />
		<text x="33.3%" y="33.3%">5</text>
	</svg>
	<svg height="25%" width="5%" x="25%" y="0%">
		<rect fill="green" x="0" y="0" width="100%" height="100%" />
		<text x="33.3%" y="33.3%">6</text>
	</svg>
	<svg height="25%" width="5%" x="30%" y="0%">
		<rect fill="green" x="0" y="0" width="100%" height="100%" />
		<text x="33.3%" y="33.3%">7</text>
	</svg>
	<svg height="25%" width="5%" x="35%" y="0%">
		<rect fill="green" x="0" y="0" width="100%" height="100%" />
		<text x="33.3%" y="33.3%">8</text>
	</svg>
	<svg height="25%" width="5%" x="40%" y="0%">
		<rect fill="green" x="0" y="0" width="100%" height="100%" />
		<text x="33.3%" y="33.3%">9</text>
	</svg>
	<svg height="25%" width="5%" x="45%" y="0%">
		<rect fill="green" x="0" y="0" width="100%" height="100%" />
		<text x="33.3%" y="33.3%">10</text>
	</svg>
	<svg height="25%" width="5%" x="50%" y="0%">
		<rect fill="green" x="0" y="0" width="100%" height="100%" />
		<text x="33.3%" y="33.3%">11</text>
	</svg>
	<svg height="25%" width="5%" x="55%" y="0%">
		<rect fill="green" x="0" y="0" width="100%" height="100%" />
		<text x="33.3%" y="33.3%">12</text>
	</svg>
	<svg height="25%" width="5%" x="60%" y="0%">
		<rect fill="green" x="0" y="0" width="100%" height="100%" />
		<text x="33.3%" y="33.3%">13</text>
	</svg>
	<svg height="25%" width="5%" x="65%" y="0%">
		<rect fill="green" x="0" y="0" width="100%" height="100%" />
		<text x="33.3%" y="33.3%">14</text>
	</svg>
	<svg height="25%" width="5%" x="70%" y="0%">
		<rect fill="green" x="0" y="0" width="100%" height="100%" />
		<text x="33.3%" y="33.3%">15</text>
	</svg>
	<svg height="25%" width="5%" x="75%" y="0%">
		<rect fill="green" x="0" y="0" width="100%" height="100%" />
		<text x="33.3%" y="33.3%">16</text>
	</svg>
	<svg height="25%" width="5%" x="80%" y="0%">
		<rect fill="green" x="0" y="0" width="100%" height="100%" />
		<text x="33.3%" y="33.3%">17</text>
	</svg>
	<svg height="25%" width="5%" x="85%" y="0%">
		<rect fill="green" x="0" y="0" width="100%" height="100%" />
		<text x="33.3%" y="33.3%">18</text>
	</svg>
	<svg height="25%" width="5%" x="90%" y="0%">
		<rect fill="green" x="0" y="0" width="100%" height="100%" />
		<text x="33.3%" y="33.3%">19</text>
	</svg>
	<svg height="25%" width="5%" x="95%" y="0%">
		<rect fill="green" x="0" y="0" width="100%" height="100%" />
		<text x="33.3%" y="33.3%">20</text>
	</svg>

	<!-- first card: verso -->
	<svg height="25%" width="5%" x="0%" y="25%">
		<rect fill="green" x="0" y="0" width="100%" height="100%" />
	</svg>
	<svg height="25%" width="5%" x="5%" y="25%">
		<rect fill="green" x="0" y="0" width="100%" height="100%" />
	</svg>
	<svg height="25%" width="5%" x="10%" y="25%">
		<rect fill="green" x="0" y="0" width="100%" height="100%" />
	</svg>
	<svg height="25%" width="5%" x="15%" y="25%">
		<rect fill="green" x="0" y="0" width="100%" height="100%" />
	</svg>
	<svg height="25%" width="5%" x="20%" y="25%">
		<rect fill="green" x="0" y="0" width="100%" height="100%" />
	</svg>
	<svg height="25%" width="5%" x="25%" y="25%">
		<rect fill="green" x="0" y="0" width="100%" height="100%" />
	</svg>
	<svg height="25%" width="5%" x="30%" y="25%">
		<rect fill="green" x="0" y="0" width="100%" height="100%" />
	</svg>
	<svg height="25%" width="5%" x="35%" y="25%">
		<rect fill="green" x="0" y="0" width="100%" height="100%" />
	</svg>
	<svg height="25%" width="5%" x="40%" y="25%">
		<rect fill="green" x="0" y="0" width="100%" height="100%" />
	</svg>
	<svg height="25%" width="5%" x="45%" y="25%">
		<rect fill="green" x="0" y="0" width="100%" height="100%" />
	</svg>
	<svg height="25%" width="5%" x="50%" y="25%">
		<rect fill="green" x="0" y="0" width="100%" height="100%" />
	</svg>
	<svg height="25%" width="5%" x="55%" y="25%">
		<rect fill="green" x="0" y="0" width="100%" height="100%" />
	</svg>
	<svg height="25%" width="5%" x="60%" y="25%">
		<rect fill="green" x="0" y="0" width="100%" height="100%" />
	</svg>
	<svg height="25%" width="5%" x="65%" y="25%">
		<rect fill="green" x="0" y="0" width="100%" height="100%" />
	</svg>
	<svg height="25%" width="5%" x="70%" y="25%">
		<rect fill="green" x="0" y="0" width="100%" height="100%" />
	</svg>
	<svg height="25%" width="5%" x="75%" y="25%">
		<rect fill="green" x="0" y="0" width="100%" height="100%" />
	</svg>
	<svg height="25%" width="5%" x="80%" y="25%">
		<rect fill="green" x="0" y="0" width="100%" height="100%" />
	</svg>
	<svg height="25%" width="5%" x="85%" y="25%">
		<rect fill="green" x="0" y="0" width="100%" height="100%" />
	</svg>
	<svg height="25%" width="5%" x="90%" y="25%">
		<rect fill="green" x="0" y="0" width="100%" height="100%" />
	</svg>
	<svg height="25%" width="5%" x="95%" y="25%">
		<rect fill="green" x="0" y="0" width="100%" height="100%" />
	</svg>

	<!-- 2nd cards: face with digit -->
	<svg height="25%" width="5%" x="0%" y="50%">
		<rect fill="orange" x="0" y="0" width="100%" height="100%" />
		<text x="33.3%" y="33.3%">1</text>
	</svg>
	<svg height="25%" width="5%" x="5%" y="50%">
		<rect fill="orange" x="0" y="0" width="100%" height="100%" />
		<text x="33.3%" y="33.3%">2</text>
	</svg>
	<svg height="25%" width="5%" x="10%" y="50%">
		<rect fill="orange" x="0" y="0" width="100%" height="100%" />
		<text x="33.3%" y="33.3%">3</text>
	</svg>
	<svg height="25%" width="5%" x="15%" y="50%">
		<rect fill="orange" x="0" y="0" width="100%" height="100%" />
		<text x="33.3%" y="33.3%">4</text>
	</svg>
	<svg height="25%" width="5%" x="20%" y="50%">
		<rect fill="orange" x="0" y="0" width="100%" height="100%" />
		<text x="33.3%" y="33.3%">5</text>
	</svg>
	<svg height="25%" width="5%" x="25%" y="50%">
		<rect fill="orange" x="0" y="0" width="100%" height="100%" />
		<text x="33.3%" y="33.3%">6</text>
	</svg>
	<svg height="25%" width="5%" x="30%" y="50%">
		<rect fill="orange" x="0" y="0" width="100%" height="100%" />
		<text x="33.3%" y="33.3%">7</text>
	</svg>
	<svg height="25%" width="5%" x="35%" y="50%">
		<rect fill="orange" x="0" y="0" width="100%" height="100%" />
		<text x="33.3%" y="33.3%">8</text>
	</svg>
	<svg height="25%" width="5%" x="40%" y="50%">
		<rect fill="orange" x="0" y="0" width="100%" height="100%" />
		<text x="33.3%" y="33.3%">9</text>
	</svg>
	<svg height="25%" width="5%" x="45%" y="50%">
		<rect fill="orange" x="0" y="0" width="100%" height="100%" />
		<text x="33.3%" y="33.3%">10</text>
	</svg>
	<svg height="25%" width="5%" x="50%" y="50%">
		<rect fill="orange" x="0" y="0" width="100%" height="100%" />
		<text x="33.3%" y="33.3%">11</text>
	</svg>
	<svg height="25%" width="5%" x="55%" y="50%">
		<rect fill="orange" x="0" y="0" width="100%" height="100%" />
		<text x="33.3%" y="33.3%">12</text>
	</svg>
	<svg height="25%" width="5%" x="60%" y="50%">
		<rect fill="orange" x="0" y="0" width="100%" height="100%" />
		<text x="33.3%" y="33.3%">13</text>
	</svg>
	<svg height="25%" width="5%" x="65%" y="50%">
		<rect fill="orange" x="0" y="0" width="100%" height="100%" />
		<text x="33.3%" y="33.3%">14</text>
	</svg>
	<svg height="25%" width="5%" x="70%" y="50%">
		<rect fill="orange" x="0" y="0" width="100%" height="100%" />
		<text x="33.3%" y="33.3%">15</text>
	</svg>
	<svg height="25%" width="5%" x="75%" y="50%">
		<rect fill="orange" x="0" y="0" width="100%" height="100%" />
		<text x="33.3%" y="33.3%">16</text>
	</svg>
	<svg height="25%" width="5%" x="80%" y="50%">
		<rect fill="orange" x="0" y="0" width="100%" height="100%" />
		<text x="33.3%" y="33.3%">17</text>
	</svg>
	<svg height="25%" width="5%" x="85%" y="50%">
		<rect fill="orange" x="0" y="0" width="100%" height="100%" />
		<text x="33.3%" y="33.3%">18</text>
	</svg>
	<svg height="25%" width="5%" x="90%" y="50%">
		<rect fill="orange" x="0" y="0" width="100%" height="100%" />
		<text x="33.3%" y="33.3%">19</text>
	</svg>
	<svg height="25%" width="5%" x="95%" y="50%">
		<rect fill="orange" x="0" y="0" width="100%" height="100%" />
		<text x="33.3%" y="33.3%">20</text>
	</svg>

	<!-- 2nd cards: verso -->
	<svg height="25%" width="5%" x="0%" y="75%">
		<rect fill="orange" x="0" y="0" width="100%" height="100%" />
	</svg>
	<svg height="25%" width="5%" x="5%" y="75%">
		<rect fill="orange" x="0" y="0" width="100%" height="100%" />
	</svg>
	<svg height="25%" width="5%" x="10%" y="75%">
		<rect fill="orange" x="0" y="0" width="100%" height="100%" />
	</svg>
	<svg height="25%" width="5%" x="15%" y="75%">
		<rect fill="orange" x="0" y="0" width="100%" height="100%" />
	</svg>
	<svg height="25%" width="5%" x="20%" y="75%">
		<rect fill="orange" x="0" y="0" width="100%" height="100%" />
	</svg>
	<svg height="25%" width="5%" x="25%" y="75%">
		<rect fill="orange" x="0" y="0" width="100%" height="100%" />
	</svg>
	<svg height="25%" width="5%" x="30%" y="75%">
		<rect fill="orange" x="0" y="0" width="100%" height="100%" />
	</svg>
	<svg height="25%" width="5%" x="35%" y="75%">
		<rect fill="orange" x="0" y="0" width="100%" height="100%" />
	</svg>
	<svg height="25%" width="5%" x="40%" y="75%">
		<rect fill="orange" x="0" y="0" width="100%" height="100%" />
	</svg>
	<svg height="25%" width="5%" x="45%" y="75%">
		<rect fill="orange" x="0" y="0" width="100%" height="100%" />
	</svg>
	<svg height="25%" width="5%" x="50%" y="75%">
		<rect fill="orange" x="0" y="0" width="100%" height="100%" />
	</svg>
	<svg height="25%" width="5%" x="55%" y="75%">
		<rect fill="orange" x="0" y="0" width="100%" height="100%" />
	</svg>
	<svg height="25%" width="5%" x="60%" y="75%">
		<rect fill="orange" x="0" y="0" width="100%" height="100%" />
	</svg>
	<svg height="25%" width="5%" x="65%" y="75%">
		<rect fill="orange" x="0" y="0" width="100%" height="100%" />
	</svg>
	<svg height="25%" width="5%" x="70%" y="75%">
		<rect fill="orange" x="0" y="0" width="100%" height="100%" />
	</svg>
	<svg height="25%" width="5%" x="75%" y="75%">
		<rect fill="orange" x="0" y="0" width="100%" height="100%" />
	</svg>
	<svg height="25%" width="5%" x="80%" y="75%">
		<rect fill="orange" x="0" y="0" width="100%" height="100%" />
	</svg>
	<svg height="25%" width="5%" x="85%" y="75%">
		<rect fill="orange" x="0" y="0" width="100%" height="100%" />
	</svg>
	<svg height="25%" width="5%" x="90%" y="75%">
		<rect fill="orange" x="0" y="0" width="100%" height="100%" />
	</svg>
	<svg height="25%" width="5%" x="95%" y="75%">
		<rect fill="orange" x="0" y="0" width="100%" height="100%" />
	</svg>
</svg>
